<mxfile host="Electron" agent="Mozilla/5.0 (X11; Linux x86_64) AppleWebKit/537.36 (KHTML, like Gecko) draw.io/28.0.6 Chrome/138.0.7204.100 Electron/37.2.3 Safari/537.36" version="28.0.6">
  <diagram name="Page-1" id="TDLtS1j6JqRE_qYPYXRm">
    <mxGraphModel dx="1374" dy="843" grid="1" gridSize="10" guides="1" tooltips="1" connect="1" arrows="1" fold="1" page="1" pageScale="1" pageWidth="850" pageHeight="1100" math="0" shadow="0">
      <root>
        <mxCell id="0" />
        <mxCell id="1" parent="0" />
        <mxCell id="yikxnhZp_Ce42BOcnsoA-1" value="Message Broker&lt;div&gt;(MQTT)&lt;/div&gt;" style="rounded=1;whiteSpace=wrap;html=1;fillColor=#e1d5e7;strokeColor=#9673a6;" parent="1" vertex="1">
          <mxGeometry x="209" y="360" width="156" height="95" as="geometry" />
        </mxCell>
        <mxCell id="yikxnhZp_Ce42BOcnsoA-6" value="" style="group" parent="1" vertex="1" connectable="0">
          <mxGeometry x="341" y="199" width="170" height="90" as="geometry" />
        </mxCell>
        <mxCell id="yikxnhZp_Ce42BOcnsoA-2" value="CLI" style="rounded=0;whiteSpace=wrap;html=1;verticalAlign=top;" parent="yikxnhZp_Ce42BOcnsoA-6" vertex="1">
          <mxGeometry width="170" height="90" as="geometry" />
        </mxCell>
        <mxCell id="yikxnhZp_Ce42BOcnsoA-5" value="AMICA&amp;nbsp;&lt;div&gt;SDK for Java&lt;/div&gt;" style="rounded=1;whiteSpace=wrap;html=1;fillColor=#d5e8d4;strokeColor=#82b366;" parent="yikxnhZp_Ce42BOcnsoA-6" vertex="1">
          <mxGeometry x="35" y="30" width="100" height="40" as="geometry" />
        </mxCell>
        <mxCell id="yikxnhZp_Ce42BOcnsoA-16" value="" style="group;fillColor=#dae8fc;strokeColor=#6c8ebf;container=0;" parent="1" vertex="1" connectable="0">
          <mxGeometry x="149" y="550" width="170" height="300" as="geometry" />
        </mxCell>
        <mxCell id="yikxnhZp_Ce42BOcnsoA-8" value="Conversational Agent" style="rounded=0;whiteSpace=wrap;html=1;verticalAlign=top;fillColor=#f5f5f5;strokeColor=#666666;fontColor=#333333;" parent="1" vertex="1">
          <mxGeometry x="149" y="550" width="170" height="300" as="geometry" />
        </mxCell>
        <mxCell id="yikxnhZp_Ce42BOcnsoA-9" value="AMICA&amp;nbsp;&lt;div&gt;SDK for Java&lt;/div&gt;" style="rounded=1;whiteSpace=wrap;html=1;fillColor=#d5e8d4;strokeColor=#82b366;" parent="1" vertex="1">
          <mxGeometry x="184" y="580" width="100" height="40" as="geometry" />
        </mxCell>
        <mxCell id="yikxnhZp_Ce42BOcnsoA-10" value="Langchain4J" style="rounded=1;whiteSpace=wrap;html=1;fillColor=#fff2cc;strokeColor=#d6b656;" parent="1" vertex="1">
          <mxGeometry x="186" y="639" width="100" height="40" as="geometry" />
        </mxCell>
        <mxCell id="yikxnhZp_Ce42BOcnsoA-11" value="JLama" style="rounded=1;whiteSpace=wrap;html=1;fillColor=#fff2cc;strokeColor=#d6b656;" parent="1" vertex="1">
          <mxGeometry x="187" y="698" width="100" height="40" as="geometry" />
        </mxCell>
        <mxCell id="yikxnhZp_Ce42BOcnsoA-12" value="Tool" style="rounded=1;whiteSpace=wrap;html=1;fillColor=#d5e8d4;strokeColor=#82b366;" parent="1" vertex="1">
          <mxGeometry x="163" y="751" width="46" height="27" as="geometry" />
        </mxCell>
        <mxCell id="yikxnhZp_Ce42BOcnsoA-13" value="Tool" style="rounded=1;whiteSpace=wrap;html=1;fillColor=#d5e8d4;strokeColor=#82b366;" parent="1" vertex="1">
          <mxGeometry x="193" y="772" width="46" height="27" as="geometry" />
        </mxCell>
        <mxCell id="yikxnhZp_Ce42BOcnsoA-14" value="Tool" style="rounded=1;whiteSpace=wrap;html=1;fillColor=#d5e8d4;strokeColor=#82b366;" parent="1" vertex="1">
          <mxGeometry x="228" y="790" width="46" height="27" as="geometry" />
        </mxCell>
        <mxCell id="yikxnhZp_Ce42BOcnsoA-15" value="..." style="rounded=1;whiteSpace=wrap;html=1;fillColor=#d5e8d4;strokeColor=#82b366;" parent="1" vertex="1">
          <mxGeometry x="257" y="809" width="46" height="27" as="geometry" />
        </mxCell>
        <mxCell id="yikxnhZp_Ce42BOcnsoA-19" value="Conversational Agent" style="rounded=0;whiteSpace=wrap;html=1;verticalAlign=top;fillColor=#f5f5f5;fontColor=#333333;strokeColor=#666666;" parent="1" vertex="1">
          <mxGeometry x="340" y="550" width="170" height="300" as="geometry" />
        </mxCell>
        <mxCell id="yikxnhZp_Ce42BOcnsoA-20" value="AMICA&amp;nbsp;&lt;div&gt;SDK for Python&lt;/div&gt;" style="rounded=1;whiteSpace=wrap;html=1;fillColor=#d5e8d4;strokeColor=#82b366;" parent="1" vertex="1">
          <mxGeometry x="375" y="580" width="100" height="40" as="geometry" />
        </mxCell>
        <mxCell id="yikxnhZp_Ce42BOcnsoA-21" value="Langchain" style="rounded=1;whiteSpace=wrap;html=1;fillColor=#fff2cc;strokeColor=#d6b656;" parent="1" vertex="1">
          <mxGeometry x="377" y="639" width="100" height="40" as="geometry" />
        </mxCell>
        <mxCell id="yikxnhZp_Ce42BOcnsoA-22" value="?" style="rounded=1;whiteSpace=wrap;html=1;fillColor=#fff2cc;strokeColor=#d6b656;" parent="1" vertex="1">
          <mxGeometry x="378" y="698" width="100" height="40" as="geometry" />
        </mxCell>
        <mxCell id="yikxnhZp_Ce42BOcnsoA-23" value="Tool" style="rounded=1;whiteSpace=wrap;html=1;fillColor=#d5e8d4;strokeColor=#82b366;" parent="1" vertex="1">
          <mxGeometry x="354" y="751" width="46" height="27" as="geometry" />
        </mxCell>
        <mxCell id="yikxnhZp_Ce42BOcnsoA-24" value="Tool" style="rounded=1;whiteSpace=wrap;html=1;fillColor=#d5e8d4;strokeColor=#82b366;" parent="1" vertex="1">
          <mxGeometry x="384" y="772" width="46" height="27" as="geometry" />
        </mxCell>
        <mxCell id="yikxnhZp_Ce42BOcnsoA-25" value="Tool" style="rounded=1;whiteSpace=wrap;html=1;fillColor=#d5e8d4;strokeColor=#82b366;" parent="1" vertex="1">
          <mxGeometry x="419" y="790" width="46" height="27" as="geometry" />
        </mxCell>
        <mxCell id="yikxnhZp_Ce42BOcnsoA-26" value="..." style="rounded=1;whiteSpace=wrap;html=1;fillColor=#d5e8d4;strokeColor=#82b366;" parent="1" vertex="1">
          <mxGeometry x="448" y="809" width="46" height="27" as="geometry" />
        </mxCell>
        <mxCell id="yikxnhZp_Ce42BOcnsoA-29" value="Conversational Agent" style="rounded=0;whiteSpace=wrap;html=1;verticalAlign=top;fillColor=#f5f5f5;fontColor=#333333;strokeColor=#666666;" parent="1" vertex="1">
          <mxGeometry x="532" y="550" width="170" height="300" as="geometry" />
        </mxCell>
        <mxCell id="yikxnhZp_Ce42BOcnsoA-30" value="AMICA&amp;nbsp;&lt;div&gt;SDK for ?&lt;/div&gt;" style="rounded=1;whiteSpace=wrap;html=1;fillColor=#d5e8d4;strokeColor=#82b366;" parent="1" vertex="1">
          <mxGeometry x="567" y="580" width="100" height="40" as="geometry" />
        </mxCell>
        <mxCell id="yikxnhZp_Ce42BOcnsoA-31" value="?" style="rounded=1;whiteSpace=wrap;html=1;fillColor=#fff2cc;strokeColor=#d6b656;" parent="1" vertex="1">
          <mxGeometry x="569" y="639" width="100" height="40" as="geometry" />
        </mxCell>
        <mxCell id="yikxnhZp_Ce42BOcnsoA-32" value="?" style="rounded=1;whiteSpace=wrap;html=1;fillColor=#fff2cc;strokeColor=#d6b656;" parent="1" vertex="1">
          <mxGeometry x="570" y="698" width="100" height="40" as="geometry" />
        </mxCell>
        <mxCell id="yikxnhZp_Ce42BOcnsoA-33" value="Tool" style="rounded=1;whiteSpace=wrap;html=1;fillColor=#d5e8d4;strokeColor=#82b366;" parent="1" vertex="1">
          <mxGeometry x="546" y="751" width="46" height="27" as="geometry" />
        </mxCell>
        <mxCell id="yikxnhZp_Ce42BOcnsoA-34" value="Tool" style="rounded=1;whiteSpace=wrap;html=1;fillColor=#d5e8d4;strokeColor=#82b366;" parent="1" vertex="1">
          <mxGeometry x="576" y="772" width="46" height="27" as="geometry" />
        </mxCell>
        <mxCell id="yikxnhZp_Ce42BOcnsoA-35" value="Tool" style="rounded=1;whiteSpace=wrap;html=1;fillColor=#d5e8d4;strokeColor=#82b366;" parent="1" vertex="1">
          <mxGeometry x="611" y="790" width="46" height="27" as="geometry" />
        </mxCell>
        <mxCell id="yikxnhZp_Ce42BOcnsoA-36" value="..." style="rounded=1;whiteSpace=wrap;html=1;fillColor=#d5e8d4;strokeColor=#82b366;" parent="1" vertex="1">
          <mxGeometry x="640" y="809" width="46" height="27" as="geometry" />
        </mxCell>
        <mxCell id="yikxnhZp_Ce42BOcnsoA-37" value="" style="endArrow=classic;startArrow=classic;html=1;rounded=0;exitX=0.5;exitY=0;exitDx=0;exitDy=0;entryX=0.5;entryY=1;entryDx=0;entryDy=0;" parent="1" source="yikxnhZp_Ce42BOcnsoA-9" target="yikxnhZp_Ce42BOcnsoA-1" edge="1">
          <mxGeometry width="50" height="50" relative="1" as="geometry">
            <mxPoint x="440" y="490" as="sourcePoint" />
            <mxPoint x="490" y="440" as="targetPoint" />
          </mxGeometry>
        </mxCell>
        <mxCell id="yikxnhZp_Ce42BOcnsoA-38" value="" style="endArrow=classic;startArrow=classic;html=1;rounded=0;exitX=0.5;exitY=0;exitDx=0;exitDy=0;entryX=0.5;entryY=1;entryDx=0;entryDy=0;" parent="1" source="yikxnhZp_Ce42BOcnsoA-20" target="yikxnhZp_Ce42BOcnsoA-1" edge="1">
          <mxGeometry width="50" height="50" relative="1" as="geometry">
            <mxPoint x="440" y="490" as="sourcePoint" />
            <mxPoint x="490" y="440" as="targetPoint" />
          </mxGeometry>
        </mxCell>
        <mxCell id="yikxnhZp_Ce42BOcnsoA-39" value="" style="endArrow=classic;startArrow=classic;html=1;rounded=0;exitX=0.5;exitY=0;exitDx=0;exitDy=0;entryX=0.5;entryY=1;entryDx=0;entryDy=0;" parent="1" source="yikxnhZp_Ce42BOcnsoA-30" target="yikxnhZp_Ce42BOcnsoA-1" edge="1">
          <mxGeometry width="50" height="50" relative="1" as="geometry">
            <mxPoint x="440" y="490" as="sourcePoint" />
            <mxPoint x="490" y="440" as="targetPoint" />
          </mxGeometry>
        </mxCell>
        <mxCell id="yikxnhZp_Ce42BOcnsoA-40" value="" style="endArrow=classic;startArrow=classic;html=1;rounded=0;exitX=0.5;exitY=0;exitDx=0;exitDy=0;" parent="1" source="yikxnhZp_Ce42BOcnsoA-1" target="yikxnhZp_Ce42BOcnsoA-5" edge="1">
          <mxGeometry width="50" height="50" relative="1" as="geometry">
            <mxPoint x="440" y="490" as="sourcePoint" />
            <mxPoint x="490" y="440" as="targetPoint" />
          </mxGeometry>
        </mxCell>
        <mxCell id="LBsL9azGOanEAaJEPiRN-1" value="Valkey" style="shape=cylinder3;whiteSpace=wrap;html=1;boundedLbl=1;backgroundOutline=1;size=15;" vertex="1" parent="1">
          <mxGeometry x="477" y="360" width="93" height="120" as="geometry" />
        </mxCell>
        <mxCell id="LBsL9azGOanEAaJEPiRN-3" value="" style="endArrow=classic;html=1;rounded=0;exitX=1;exitY=0;exitDx=0;exitDy=0;entryX=0.145;entryY=1;entryDx=0;entryDy=-4.35;entryPerimeter=0;" edge="1" parent="1" source="yikxnhZp_Ce42BOcnsoA-9" target="LBsL9azGOanEAaJEPiRN-1">
          <mxGeometry width="50" height="50" relative="1" as="geometry">
            <mxPoint x="380" y="600" as="sourcePoint" />
            <mxPoint x="430" y="550" as="targetPoint" />
          </mxGeometry>
        </mxCell>
        <mxCell id="LBsL9azGOanEAaJEPiRN-4" value="" style="endArrow=classic;html=1;rounded=0;exitX=0.87;exitY=0;exitDx=0;exitDy=0;exitPerimeter=0;entryX=0.5;entryY=1;entryDx=0;entryDy=0;entryPerimeter=0;" edge="1" parent="1" source="yikxnhZp_Ce42BOcnsoA-20" target="LBsL9azGOanEAaJEPiRN-1">
          <mxGeometry width="50" height="50" relative="1" as="geometry">
            <mxPoint x="380" y="600" as="sourcePoint" />
            <mxPoint x="430" y="550" as="targetPoint" />
          </mxGeometry>
        </mxCell>
        <mxCell id="LBsL9azGOanEAaJEPiRN-5" value="" style="endArrow=classic;html=1;rounded=0;exitX=0.75;exitY=0;exitDx=0;exitDy=0;entryX=0.855;entryY=1;entryDx=0;entryDy=-4.35;entryPerimeter=0;" edge="1" parent="1" source="yikxnhZp_Ce42BOcnsoA-30" target="LBsL9azGOanEAaJEPiRN-1">
          <mxGeometry width="50" height="50" relative="1" as="geometry">
            <mxPoint x="380" y="600" as="sourcePoint" />
            <mxPoint x="430" y="550" as="targetPoint" />
          </mxGeometry>
        </mxCell>
      </root>
    </mxGraphModel>
  </diagram>
</mxfile>
